<?xml version="1.0" standalone="no"?>
<!DOCTYPE svg PUBLIC "-//W3C//DTD SVG 20010904//EN"
 "http://www.w3.org/TR/2001/REC-SVG-20010904/DTD/svg10.dtd">
<svg version="1.0" xmlns="http://www.w3.org/2000/svg"
 width="800.000000pt" height="800.000000pt" viewBox="0 0 800.000000 800.000000"
 preserveAspectRatio="xMidYMid meet">
<metadata>
Created by potrace 1.14, written by Peter Selinger 2001-2017
</metadata>
<g transform="translate(0.000000,800.000000) scale(0.100000,-0.100000)"
fill="#000000" stroke="none">
<path d="M2597 6643 c-1 -1 -40 -4 -87 -8 -47 -3 -92 -8 -100 -10 -8 -2 -37
-6 -65 -10 -87 -11 -119 -16 -160 -27 -22 -5 -51 -12 -65 -15 -130 -23 -391
-120 -559 -210 -270 -143 -539 -370 -724 -610 -239 -312 -432 -749 -502 -1138
-54 -302 -67 -525 -51 -845 3 -75 8 -144 10 -155 2 -11 7 -49 11 -85 3 -36 15
-112 26 -170 152 -816 588 -1430 1254 -1768 159 -80 304 -134 495 -182 106
-26 145 -34 223 -45 15 -2 45 -7 67 -10 132 -20 486 -26 635 -12 73 7 177 22
220 31 251 54 386 96 561 175 86 39 237 118 277 146 16 12 31 6 112 -46 230
-145 529 -280 627 -285 70 -3 125 17 167 60 28 29 383 598 423 679 45 90 29
186 -40 249 -21 19 -84 54 -142 78 -93 39 -319 146 -329 156 -2 2 21 61 51
131 50 116 119 306 133 365 3 13 16 70 30 128 22 91 41 193 59 320 29 199 29
614 0 850 -29 239 -114 595 -174 725 -5 11 -21 49 -36 85 -240 588 -702 1054
-1272 1281 -149 60 -351 117 -477 134 -22 3 -67 10 -100 15 -103 15 -215 23
-358 24 -76 1 -139 0 -140 -1z m308 -1248 c325 -22 640 -185 859 -446 102
-121 241 -394 271 -532 2 -12 9 -41 15 -65 5 -23 13 -58 16 -78 3 -20 7 -44 9
-53 28 -147 33 -438 10 -591 -3 -19 -8 -51 -11 -70 -8 -53 -31 -145 -61 -239
l-26 -84 -61 65 c-97 102 -116 126 -215 256 -118 155 -155 182 -254 182 -66 0
-66 0 -354 -223 -144 -111 -246 -197 -262 -221 -18 -28 -26 -55 -29 -100 -4
-57 -1 -67 46 -157 79 -152 172 -295 301 -464 40 -53 72 -98 69 -100 -11 -11
-199 -55 -262 -62 -643 -66 -1175 277 -1381 890 -66 197 -89 356 -89 617 -1
304 46 530 159 765 204 422 577 677 1042 711 48 3 90 8 91 9 2 2 9 2 15 0 7
-2 53 -6 102 -10z"/>
<path d="M5954 4682 c-89 -14 -102 -45 -109 -244 -3 -85 -7 -211 -10 -279 -2
-68 -7 -216 -10 -329 -3 -113 -8 -250 -10 -305 -2 -55 -7 -185 -10 -290 -4
-104 -8 -242 -10 -305 -2 -63 -7 -200 -10 -305 -3 -104 -8 -237 -10 -295 -4
-90 -12 -340 -19 -594 -3 -84 15 -127 61 -141 48 -16 492 -12 521 4 43 23 54
70 66 291 5 82 16 252 20 313 2 21 7 42 12 46 5 4 31 25 59 47 27 21 61 49 75
61 69 59 175 143 182 143 4 0 16 -12 25 -27 10 -16 24 -35 30 -43 7 -8 130
-181 273 -385 308 -438 294 -419 341 -441 72 -32 84 -25 322 169 163 133 196
172 183 220 -5 20 -146 212 -233 317 -13 15 -337 432 -376 484 -12 16 -34 45
-49 64 -15 19 -25 38 -23 42 3 5 110 93 238 196 127 103 234 191 237 194 3 3
46 38 95 77 50 39 100 82 112 95 36 38 36 86 -1 124 -6 6 -65 69 -131 139
-225 240 -228 242 -289 231 -29 -6 -124 -78 -241 -184 -16 -15 -59 -52 -95
-82 -36 -30 -78 -67 -95 -81 -16 -15 -147 -127 -290 -249 -143 -122 -270 -231
-281 -242 l-22 -19 3 43 c2 24 6 97 10 163 8 126 9 143 20 320 4 61 9 135 10
165 2 30 6 91 9 135 3 44 8 121 12 170 3 50 7 115 9 145 2 30 7 107 11 170 3
63 7 131 8 151 4 51 -17 97 -51 110 -25 10 -516 19 -569 11z"/>
</g>
</svg>
